<svg xml:space="preserve" viewBox="491.60303999999996 500.25600000000003 97.2 82.08" version="1.1" xmlns:xlink="http://www.w3.org/1999/xlink" xmlns="http://www.w3.org/2000/svg" style="max-height: 500px" width="97.2" height="82.08">
<desc>Created with Fabric.js 5.2.4</desc>
<defs>
</defs>
<g id="25431691-3c7f-4423-b968-3c2a82061c94" transform="matrix(1 0 0 1 540 540)">
<rect height="1080" width="1080" ry="0" rx="0" y="-540" x="-540" style="stroke: none; stroke-width: 1; stroke-dasharray: none; stroke-linecap: butt; stroke-dashoffset: 0; stroke-linejoin: miter; stroke-miterlimit: 4; fill: rgb(255,255,255); fill-rule: nonzero; opacity: 1; visibility: hidden;"/>
</g>
<g id="f068527e-14ab-4355-b698-14f7c9bcaeee" transform="matrix(1 0 0 1 540 540)">
</g>
<g transform="matrix(0.51 0.86 -0.86 0.51 540 540)">
<g style="">
		<g transform="matrix(1 0 0 1 0 0)">
<circle r="30.3327" cy="0" cx="0" style="stroke: none; stroke-width: 1; stroke-dasharray: none; stroke-linecap: butt; stroke-dashoffset: 0; stroke-linejoin: miter; stroke-miterlimit: 4; fill: rgb(48,133,82); fill-opacity: 0.2; fill-rule: nonzero; opacity: 1;"/>
</g>
		<g transform="matrix(1 0 0 1 0 0)">
<circle r="20.2218" cy="0" cx="0" style="stroke: none; stroke-width: 1; stroke-dasharray: none; stroke-linecap: butt; stroke-dashoffset: 0; stroke-linejoin: miter; stroke-miterlimit: 4; fill: rgb(48,133,82); fill-rule: nonzero; opacity: 1;"/>
</g>
		<g transform="matrix(1 0 0 1 1.35 2.43)">
<path stroke-linecap="round" d="M 54.5346 64.7539 L 48.9808 56.3423 C 46.4894 52.5688 48.1429 49.7048 52.6565 49.9757 L 62.7181 50.5796 C 69.4885 50.986 70.3892 54.3762 64.7343 58.1042 L 63.0298 59.224 C 62.5332 59.5575 62.2225 60.0957 62.1819 60.6925 L 62.0591 62.7377 C 61.658 69.499 58.2626 70.4088 54.5346 64.7539 Z" transform="translate(-58.13, -59.21)" style="stroke: none; stroke-width: 1; stroke-dasharray: none; stroke-linecap: butt; stroke-dashoffset: 0; stroke-linejoin: miter; stroke-miterlimit: 4; fill: rgb(250,250,251); fill-rule: nonzero; opacity: 1;"/>
</g>
</g>
</g>
</svg>